<svg xmlns="http://www.w3.org/2000/svg" viewBox="0 0 512 512" width="512" height="512">
  <!-- Fondo Blanco Pulcro Oficial -->
  <rect width="512" height="512" fill="#FFFFFF"/>

  <!-- Isotipo Oficial Autopartes ("A") Centrado -->
  <g id="autopartes-isotype" transform="translate(285.678, 415.281) scale(2.231)" fill="#0F172A">
    <!-- Punto de la "A" -->
    <path d="M-42.6-58.1c17.1,0,30.1,16.7,24.1,34.6c-2.2,6.5-6.9,11.7-13.2,14.4c-18.6,7.9-36.5-5.7-36.5-23.3C-68.2-46.6-56.7-58.1-42.6-58.1z"/>
    <!-- Pilar inclinado de la "A" -->
    <path d="M-47.2-73.9c0,0,30.8-45.4,33.9-49.8c3.1-4.4,5.6-4.6,6.6-2.2S41.6-6.4,41.6-6.4H1.9l-30.6-69.4c0,0-1.7-5.2-3.9-4.8c-2.2,0.4-4.6,2.1-7.6,5.1s-4.4,4.1-5.7,4.8C-47.3-70-48.6-72-47.2-73.9z"/>
  </g>
</svg>
